<svg width="58" height="58" viewBox="0 0 58 58" fill="none" xmlns="http://www.w3.org/2000/svg">
<g filter="url(#filter0_d_509_115)">
<path d="M41.5 27.8252V37.0677H36.1425V28.4427C36.1425 26.2777 35.3675 24.8002 33.4275 24.8002C31.9475 24.8002 31.065 25.7952 30.6775 26.7602C30.5375 27.1052 30.5 27.5852 30.5 28.0652V37.0677H25.14C25.14 37.0677 25.2125 22.4627 25.14 20.9502H30.5V23.2327L30.465 23.2852H30.5V23.2327C31.2125 22.1327 32.4825 20.5702 35.33 20.5702C38.855 20.5702 41.5 22.8752 41.5 27.8252ZM19.5325 13.1777C17.7 13.1777 16.5 14.3827 16.5 15.9627C16.5 17.5127 17.665 18.7502 19.4625 18.7502H19.4975C21.3675 18.7502 22.53 17.5102 22.53 15.9627C22.495 14.3827 21.3675 13.1777 19.5325 13.1777ZM16.8175 37.0677H22.1775V20.9502H16.8175V37.0677Z" fill="#F8F8F8"/>
<path d="M29 45C34.3043 45 39.3914 42.8929 43.1421 39.1421C46.8929 35.3914 49 30.3043 49 25C49 19.6957 46.8929 14.6086 43.1421 10.8579C39.3914 7.10714 34.3043 5 29 5C23.6957 5 18.6086 7.10714 14.8579 10.8579C11.1071 14.6086 9 19.6957 9 25C9 30.3043 11.1071 35.3914 14.8579 39.1421C18.6086 42.8929 23.6957 45 29 45ZM29 50C15.1925 50 4 38.8075 4 25C4 11.1925 15.1925 0 29 0C42.8075 0 54 11.1925 54 25C54 38.8075 42.8075 50 29 50Z" fill="#F8F8F8"/>
</g>
<defs>
<filter id="filter0_d_509_115" x="0" y="0" width="58" height="58" filterUnits="userSpaceOnUse" color-interpolation-filters="sRGB">
<feFlood flood-opacity="0" result="BackgroundImageFix"/>
<feColorMatrix in="SourceAlpha" type="matrix" values="0 0 0 0 0 0 0 0 0 0 0 0 0 0 0 0 0 0 127 0" result="hardAlpha"/>
<feOffset dy="4"/>
<feGaussianBlur stdDeviation="2"/>
<feComposite in2="hardAlpha" operator="out"/>
<feColorMatrix type="matrix" values="0 0 0 0 0 0 0 0 0 0 0 0 0 0 0 0 0 0 0.25 0"/>
<feBlend mode="normal" in2="BackgroundImageFix" result="effect1_dropShadow_509_115"/>
<feBlend mode="normal" in="SourceGraphic" in2="effect1_dropShadow_509_115" result="shape"/>
</filter>
</defs>
</svg>
